inDegrees=yes
name=IK-live
DataType=double
version=3
OpenSimVersion=4.1
endheader
time	pelvis_tilt	pelvis_list	pelvis_rotation	pelvis_tx	pelvis_ty	pelvis_tz	hip_flexion_r	hip_adduction_r	hip_rotation_r	knee_angle_r	ankle_angle_r	subtalar_angle_r	mtp_angle_r	hip_flexion_l	hip_adduction_l	hip_rotation_l	knee_angle_l	ankle_angle_l	subtalar_angle_l	mtp_angle_l	lumbar_extension	lumbar_bending	lumbar_rotation	neck_flex	neck_latbend	neck_rot	arm_flex_r	arm_add_r	arm_rot_r	elbow_flex_r	pro_sup_r	wrist_flex_r	wrist_dev_r	arm_flex_l	arm_add_l	arm_rot_l	elbow_flex_l	pro_sup_l	wrist_flex_l	wrist_dev_l
73.0019901	0.4749435320619211	-1.757134158146932	32.93714739067411	0	1	0	60.63026337553402	-7.513441400404226	-6.415226177858989	-56.62025304362116	-6.088145861736663	-6.782555279559421	0	62.05585133933848	-0.1934136035716026	0.7131687176304684	-61.32845298205535	-3.159392945517568	-4.203246269614444	0	-1.789395948306709	5.386193783107496	-1.732016509774779	-15.11088347282745	-4.924341234319587	1.604317081000539	36.3545049811617	6.984266657508504	29.96687633275103	53.20511464620008	51.21853491743613	-29.46323299422018	-24.99299289972771	19.44467772347092	0.4939999484266786	38.57147244989588	65.31902935445882	43.27002125571022	-23.29834606083655	-24.97885499303211
73.0519223	0.451022682731498	-1.77649360001522	32.8870832778042	0	1	0	60.66774292487659	-7.459279555514624	-6.380896999867855	-56.61221860451546	-6.093478121536876	-6.782462903124082	0	62.0837235856615	-0.2413262821676116	0.6861182786317184	-61.31874548094183	-3.171026164445884	-4.199972492412734	0	-1.697650679669354	5.35484480657072	-1.802911568826352	-15.1137492218866	-4.926651975455625	1.777493713066141	36.29798941987879	6.99653446372376	30.02003206286269	53.36078297444659	51.83551789540344	-30.11379941571315	-24.99325026631819	19.40794591199487	0.4578411812377934	38.5018012215032	65.23239765473861	43.28708981610797	-23.2821078246245	-24.97870259676005
73.0718863	0.4442442320308262	-1.793772134919533	32.8599947208242	0	1	0	60.68918187052136	-7.426370530722344	-6.370341824120836	-56.62097982967013	-6.085537542927182	-6.777396456294738	0	62.09381892958542	-0.2687485172240183	0.681315861162656	-61.31649789893767	-3.162854134020173	-4.191015175040765	0	-1.64551052572538	5.386881816881105	-1.810947939130333	-15.1105245139284	-4.956303230425789	1.841360897130578	36.22222934613576	6.978626145976912	30.04825180344874	53.43965831918909	52.12005324843951	-30.35044173940997	-24.99324176644404	19.39107901891737	0.4648447548881922	38.51191256430187	65.21203978198308	43.26267306365379	-23.29245086484861	-24.97866836396103
73.1018897	0.4309769988855734	-1.806565977797392	32.83217332788672	0	1	0	60.71045241539947	-7.402457791693254	-6.359023638108792	-56.62374846123853	-6.082798867684081	-6.771995395360927	0	62.10538536327663	-0.2904380202695696	0.6687070514910977	-61.31003088525922	-3.162014806937477	-4.190090225284981	0	-1.593689477031074	5.410197754739451	-1.823028240007466	-15.08728783885599	-4.979752226786383	1.904519372731092	36.18242618354377	6.979957816705209	30.07492401740641	53.469343496002	52.33702779042522	-30.48185888214709	-24.99327698809785	19.38111556632644	0.4720616710947143	38.5177244300119	65.18589991140415	43.22764828337688	-23.29329012892887	-24.97870754744067
73.1518628	0.4346044089933625	-1.813005585848553	32.80648278101408	0	1	0	60.70467758178229	-7.381232184019969	-6.35922487977495	-56.61842304907603	-6.085841964926804	-6.774189108950562	0	62.09886843869282	-0.3181458270793298	0.6555504885456198	-61.30155166598296	-3.172323919053346	-4.191346356788204	0	-1.552510201368959	5.425407808015848	-1.814297060722509	-15.05915743969594	-4.977775927142986	1.928698854573561	36.14286887621239	7.005985549065263	29.98986098796356	53.39623386739365	52.52986314601635	-30.25466762796498	-24.99336207491186	19.39493343043442	0.4851626574339127	38.55303397016552	65.12371534837577	43.17546833103952	-23.27814755568693	-24.9787238227207
73.2018656	0.4369761348306287	-1.834467444141305	32.77807505533553	0	1	0	60.70519676916749	-7.353276775944236	-6.369006822797065	-56.61017027487443	-6.084059513987407	-6.773733289720224	0	62.0925304919466	-0.3560022287338202	0.6613976474974986	-61.29211800451077	-3.156524697202104	-4.181782573123758	0	-1.479590114637768	5.459143517533036	-1.7779902946088	-15.10263860800544	-4.996073942725842	1.938859687186029	36.02127205523898	6.958404992042246	29.90358014107406	53.27460650292819	52.22677732495792	-29.25341675379058	-24.99320024395236	19.36806891007922	0.5295786378894375	38.55932982862081	65.07942164501544	43.16849053643345	-23.28695629867461	-24.97866719615268
73.2518623	0.4824716189616492	-1.820835824770388	32.75779354566153	0	1	0	60.65249576512973	-7.324656841269135	-6.390681355725504	-56.59219163179246	-6.09610230587831	-6.784673187946139	0	62.03162665814686	-0.3859959970404829	0.670675910923389	-61.27834616296814	-3.154610211107867	-4.173828666718499	0	-1.45871787099007	5.468192072391847	-1.892146913608239	-15.12505790175041	-5.062423775767935	2.080231828779346	35.74744932992422	7.175706899576138	30.09325799376597	53.00467392848208	50.77963694467874	-27.85260709332793	-24.99316760385006	19.32976652096287	0.528237187218712	38.45871141646822	65.03091874092398	43.15773994652861	-23.29180465692696	-24.97892311498591
73.3015752	0.517779114537762	-1.819220823315655	32.75487967048405	0	1	0	60.63150399271481	-7.30936718648799	-6.407421225219879	-56.59530207473576	-6.106724752660337	-6.779644987163046	0	61.99191502765319	-0.3925387181060193	0.6879613432310432	-61.26236334175945	-3.159166262370794	-4.183417532004	0	-1.404791683978802	5.463625042846671	-2.004866511393791	-15.158373499392	-5.112298171415596	2.190014981213646	35.52125817048824	7.504341038862744	30.67765854502809	52.23134878347557	48.03765598597412	-26.05607138351567	-24.9914791566282	19.28342417478763	0.5072597351897108	38.41158813439755	64.98926187489035	43.12741168427944	-23.31704992307949	-24.97924722386701
73.3519355	0.5499363532848013	-1.827410643834989	32.76788556410874	0	1	0	60.62055280784362	-7.312091451838756	-6.432854741755144	-56.61749507097969	-6.099997893223191	-6.778998776485325	0	61.96770664228723	-0.3883278995910118	0.7067044242683261	-61.25369571375465	-3.171941823332801	-4.205449200300611	0	-1.351699382540735	5.450919529476801	-2.034288699231324	-15.18834002736802	-5.085628118119735	2.245374391995211	35.47365981550251	7.342026953654415	30.6721043185656	52.45913257197039	48.42133631224133	-26.5709246813857	-24.9920246151319	19.24443935846529	0.500134127998148	38.45430722735434	64.9290783862742	43.09407583780034	-23.32687336541138	-24.97953465884038
73.40182679999999	0.5838712177642382	-1.832676306481343	32.74443383024744	0	1	0	60.59457619146407	-7.263707285305579	-6.450344147201633	-56.63371896305296	-6.081853797698848	-6.799977353867146	0	61.93886923277572	-0.4230894661391098	0.7206298219598225	-61.24930082210163	-3.175983856576826	-4.21548470760159	0	-1.297850085152064	5.362755481077774	-1.998368810726502	-15.200545130516	-4.957388436546823	2.224180073440075	35.3635383392445	7.266269199946215	30.47674674361019	53.00036939672668	49.06537513145361	-27.66648255125456	-24.99316341768597	19.18020821706852	0.4614773586165113	38.53789078191708	64.88920594573405	43.10544636406339	-23.3473356407333	-24.97941064115957
73.4517587	0.5612515921444475	-1.871035084619332	32.75609563665547	0	1	0	60.62363553925466	-7.271180623244609	-6.490740961300837	-56.63174284106487	-6.080689261182322	-6.81326114269711	0	61.98668767483307	-0.4378704385030826	0.7551615895309558	-61.25545178406161	-3.179454260745918	-4.20166152695244	0	-1.262799814399868	5.230606873352878	-2.06098977592077	-15.19952297984556	-4.824275669378517	2.196028891355553	35.5293788167444	7.296205298760235	30.22918822285907	53.15335945140122	49.93340842739644	-28.42191612516684	-24.99363848250784	19.17807332251807	0.3197121017624244	38.57886451141466	64.91310195710393	43.09717348105033	-23.38419150192571	-24.97919993508303
